<?xml version="1.0" encoding="UTF-8" standalone="no"?>
<!-- Created with Inkscape (http://www.inkscape.org/) -->

<svg
   xmlns:dc="http://purl.org/dc/elements/1.1/"
   xmlns:cc="http://creativecommons.org/ns#"
   xmlns:rdf="http://www.w3.org/1999/02/22-rdf-syntax-ns#"
   xmlns:svg="http://www.w3.org/2000/svg"
   xmlns="http://www.w3.org/2000/svg"
   xmlns:sodipodi="http://sodipodi.sourceforge.net/DTD/sodipodi-0.dtd"
   xmlns:inkscape="http://www.inkscape.org/namespaces/inkscape"
   width="500"
   height="69.754456"
   id="svg2"
   version="1.1"
   inkscape:version="0.48.4 r9939"
   sodipodi:docname="logo-horizontal.svg">
  <defs
     id="defs4" />
  <sodipodi:namedview
     id="base"
     pagecolor="#ffffff"
     bordercolor="#666666"
     borderopacity="1.0"
     inkscape:pageopacity="0"
     inkscape:pageshadow="2"
     inkscape:zoom="2.8"
     inkscape:cx="247.0788"
     inkscape:cy="81.911289"
     inkscape:document-units="px"
     inkscape:current-layer="g3230"
     showgrid="false"
     inkscape:showpageshadow="false"
     showborder="true"
     inkscape:window-width="2560"
     inkscape:window-height="1345"
     inkscape:window-x="0"
     inkscape:window-y="0"
     inkscape:window-maximized="1"
     borderlayer="false"
     showguides="true"
     inkscape:guide-bbox="true"
     units="px"
     fit-margin-top="0"
     fit-margin-left="0"
     fit-margin-right="0"
     fit-margin-bottom="0" />
  <metadata
     id="metadata7">
    <rdf:RDF>
      <cc:Work
         rdf:about="">
        <dc:format>image/svg+xml</dc:format>
        <dc:type
           rdf:resource="http://purl.org/dc/dcmitype/StillImage" />
        <dc:title />
      </cc:Work>
    </rdf:RDF>
  </metadata>
  <g
     inkscape:label="Layer 1"
     inkscape:groupmode="layer"
     id="layer1"
     transform="translate(-0.27906688,-910.39966)">
    <g
       id="g3230"
       transform="translate(-41.181091,302.04722)">
      <g
         id="g4364"
         transform="translate(0,-69.754455)">
        <g
           transform="matrix(0.51634465,0,0,0.51634465,19.769365,361.70713)"
           id="g3198">
          <rect
             inkscape:export-ydpi="94.505577"
             inkscape:export-xdpi="94.505577"
             inkscape:export-filename="/home/safe/stuff/Arctic Shores/Logo/logo-large.png"
             ry="11.463006"
             y="612.76855"
             x="42.008362"
             height="135.09282"
             width="968.34546"
             id="rect2997"
             style="fill:#33333f;fill-opacity:0.94117647;stroke:none" />
        </g>
        <path
           sodipodi:type="arc"
           style="fill:#ffffff;fill-opacity:1;fill-rule:nonzero;stroke:#ffffff;stroke-width:0.60000002;stroke-linecap:round;stroke-linejoin:round;stroke-miterlimit:10;stroke-opacity:1;stroke-dasharray:none;stroke-dashoffset:0"
           id="path3002"
           sodipodi:cx="-242.85715"
           sodipodi:cy="49.808769"
           sodipodi:rx="37.142857"
           sodipodi:ry="37.142857"
           d="m -205.71429,49.808769 c 0,20.513433 -16.62942,37.142857 -37.14286,37.142857 -20.51343,0 -37.14285,-16.629424 -37.14285,-37.142857 0,-20.513433 16.62942,-37.142856 37.14285,-37.142856 20.51344,0 37.14286,16.629423 37.14286,37.142856 z"
           transform="matrix(0.39062497,0,0,0.39062497,477.86923,694.17444)" />
        <flowRoot
           xml:space="preserve"
           id="flowRoot3817"
           style="font-size:12px;font-style:normal;font-variant:normal;font-weight:bold;font-stretch:normal;line-height:125%;letter-spacing:0px;word-spacing:0px;fill:#000000;fill-opacity:1;stroke:none;font-family:Ubuntu;-inkscape-font-specification:Sans Bold"
           transform="matrix(0.45211223,0,0,0.45211223,104.13915,461.74254)"><flowRegion
             id="flowRegion3819"><rect
               id="rect3821"
               width="512.85712"
               height="208.57143"
               x="334.28571"
               y="-41.619804" /></flowRegion><flowPara
             id="flowPara3823" /></flowRoot>        <flowRoot
           xml:space="preserve"
           id="flowRoot3006"
           style="font-size:12px;font-style:normal;font-variant:normal;font-weight:bold;font-stretch:normal;line-height:125%;letter-spacing:0px;word-spacing:0px;fill:#000000;fill-opacity:1;stroke:none;font-family:Ubuntu;-inkscape-font-specification:Sans Bold"
           transform="matrix(0.45211223,0,0,0.45211223,104.13915,461.74254)"><flowRegion
             id="flowRegion3008"><rect
               id="rect3010"
               width="874.28571"
               height="161.42857"
               x="58.57143"
               y="6.9516253" /></flowRegion><flowPara
             id="flowPara3012" /></flowRoot>        <path
           inkscape:connector-curvature="0"
           id="path3051"
           style="font-size:144px;font-style:normal;font-variant:normal;font-weight:bold;font-stretch:normal;line-height:125%;letter-spacing:-6.24000359px;word-spacing:0px;fill:#ffffff;fill-opacity:1;stroke:none;font-family:Virgo01;-inkscape-font-specification:Virgo01"
           d="m 56.447241,734.97053 c -0.933847,0 -1.840215,-0.22888 -2.719116,-0.68665 -0.8606,-0.47607 -1.53809,-1.15355 -2.032471,-2.03246 -0.494385,-0.8789 -0.741576,-1.80358 -0.741576,-2.77405 0,-0.95213 2.737421,-6.93053 8.212282,-17.93518 5.474834,-11.0046 8.450293,-16.93721 8.92639,-17.79785 0.476051,-0.87887 1.153542,-1.55636 2.03247,-2.03247 0.878884,-0.49434 1.794409,-0.74153 2.746579,-0.74158 0.952125,5e-5 1.858495,0.24724 2.71912,0.74158 0.878875,0.47611 1.556365,1.1536 2.03247,2.03247 0.494355,0.86064 3.48813,6.79325 8.98132,17.79785 5.511435,11.00465 8.267165,16.98305 8.26721,17.93518 -4.5e-5,0.97047 -0.247235,1.89515 -0.74158,2.77405 -0.494425,0.87891 -1.18107,1.55639 -2.059925,2.03246 -0.878955,0.45777 -1.776175,0.68665 -2.69166,0.68665 l -32.931513,0 m 23.950193,-11.06873 -7.525635,-15.46324 -7.553097,15.46324 15.078732,0" />
        <path
           inkscape:connector-curvature="0"
           id="path3053"
           style="font-size:144px;font-style:normal;font-variant:normal;font-weight:bold;font-stretch:normal;line-height:125%;letter-spacing:-6.24000359px;word-spacing:0px;fill:#ffffff;fill-opacity:1;stroke:none;font-family:Virgo01;-inkscape-font-specification:Virgo01"
           d="m 103.44821,691.02523 19.28101,0 c 3.58883,4e-5 6.76571,1.39163 9.53063,4.1748 2.76485,2.76492 4.13814,5.93264 4.11988,9.50317 -5e-5,3.79031 -0.69585,6.99465 -2.0874,9.61305 -1.37334,2.60011 -3.45158,3.94593 -6.23475,4.03746 l 6.78406,6.86646 c 1.08028,1.08032 1.62044,2.4994 1.62048,4.2572 -0.055,3.66211 -1.88602,5.48401 -5.49316,5.46569 -1.86771,0.0549 -3.70792,-0.84228 -5.52063,-2.69164 l -10.98632,-13.62306 c -1.84939,-1.95919 -2.78323,-3.84519 -2.80152,-5.65794 -2e-5,-3.69872 1.84935,-5.53892 5.5481,-5.52063 l 3.90014,-0.0274 c 2.89304,0.0367 4.32126,-0.85141 4.28467,-2.66418 -3e-5,-1.81272 -1.43741,-2.71909 -4.31213,-2.71912 l -3.98255,0 -8.12988,0 0,27.41089 c 0.0183,3.66211 -1.82191,5.49317 -5.52063,5.49317 -3.680416,0.0183 -5.511476,-1.79444 -5.493161,-5.43824 l 0,-33.04138 c 0.01835,-3.58883 1.84936,-5.40156 5.493161,-5.43823" />
        <path
           inkscape:connector-curvature="0"
           id="path3055"
           style="font-size:144px;font-style:normal;font-variant:normal;font-weight:bold;font-stretch:normal;line-height:125%;letter-spacing:-6.24000359px;word-spacing:0px;fill:#ffffff;fill-opacity:1;stroke:none;font-family:Virgo01;-inkscape-font-specification:Virgo01"
           d="m 161.38058,691.02523 11.01378,0.0274 c 3.64376,0.055 5.47483,1.86771 5.49317,5.43823 -0.0184,3.69876 -1.85855,5.53897 -5.52063,5.52063 l -10.95886,0.0274 c -7.30592,-0.0549 -10.95887,3.59805 -10.95886,10.95886 -1e-5,7.28761 3.66209,10.94971 10.98633,10.98632 l 10.93139,0 c 3.66208,0.0733 5.49312,1.886 5.49317,5.43823 -5e-5,3.66212 -1.81278,5.50233 -5.43824,5.52064 l -10.98632,0 c -14.64845,0 -21.98181,-7.32421 -22.00012,-21.97266 -1e-5,-14.6484 7.31505,-21.96345 21.94519,-21.94518" />
        <path
           inkscape:connector-curvature="0"
           id="path3057"
           style="font-size:144px;font-style:normal;font-variant:normal;font-weight:bold;font-stretch:normal;line-height:125%;letter-spacing:-4.23999977px;word-spacing:0px;fill:#ffffff;fill-opacity:1;stroke:none;font-family:Virgo01;-inkscape-font-specification:Virgo01"
           d="m 186.43636,690.97029 27.79541,0.0549 c 3.42402,0.055 5.14522,1.8311 5.16358,5.32837 -5e-5,3.73539 -1.84941,5.63052 -5.54811,5.68543 l -8.21227,0 0.0275,27.43835 c -0.0366,3.60718 -1.87686,5.42907 -5.52063,5.4657 -3.66213,0 -5.49318,-1.77613 -5.49316,-5.32838 l 0.0275,-27.57567 -8.23976,0 c -3.66211,3e-5 -5.49316,-1.84018 -5.49316,-5.52064 0.0183,-3.62544 1.84936,-5.47479 5.49316,-5.54809" />
        <path
           inkscape:connector-curvature="0"
           id="path3059"
           style="font-size:144px;font-style:normal;font-variant:normal;font-weight:bold;font-stretch:normal;line-height:125%;letter-spacing:-4.23999977px;word-spacing:0px;fill:#ffffff;fill-opacity:1;stroke:none;font-family:Virgo01;-inkscape-font-specification:Virgo01"
           d="m 228.69795,691.02523 c 3.6621,0.0367 5.52061,1.8494 5.57556,5.43823 l 0,33.01391 c -0.0366,3.66211 -1.87684,5.52063 -5.52063,5.57556 -3.66211,-0.0732 -5.49316,-1.9226 -5.49316,-5.5481 l 0,-33.01391 c -0.0183,-3.62545 1.79442,-5.44734 5.43823,-5.46569" />
        <path
           inkscape:connector-curvature="0"
           id="path3061"
           style="font-size:144px;font-style:normal;font-variant:normal;font-weight:bold;font-stretch:normal;line-height:125%;letter-spacing:-4.23999977px;word-spacing:0px;fill:#ffffff;fill-opacity:1;stroke:none;font-family:Virgo01;-inkscape-font-specification:Virgo01"
           d="m 260.00069,691.02523 11.01379,0.0274 c 3.64376,0.055 5.47481,1.86771 5.49316,5.43823 -0.0184,3.69876 -1.85856,5.53897 -5.52063,5.52063 l -10.95885,0.0274 c -7.30593,-0.0549 -10.95888,3.59805 -10.95887,10.95886 -1e-5,7.28761 3.66209,10.94971 10.98632,10.98632 l 10.9314,0 c 3.66207,0.0733 5.49312,1.886 5.49317,5.43823 -5e-5,3.66212 -1.81279,5.50233 -5.43824,5.52064 l -10.98633,0 c -14.64844,0 -21.9818,-7.32421 -22.00011,-21.97266 0,-14.6484 7.31505,-21.96345 21.94519,-21.94518" />
        <path
           inkscape:connector-curvature="0"
           id="path3063"
           style="font-size:144px;font-style:normal;font-variant:normal;font-weight:bold;font-stretch:normal;line-height:125%;letter-spacing:-6.24000359px;word-spacing:0px;fill:#00c0c0;fill-opacity:1;stroke:none;font-family:Virgo01;-inkscape-font-specification:Virgo01"
           d="m 318.8791,696.51838 c -4e-5,3.66215 -1.767,5.50235 -5.3009,5.52064 l -16.72669,-0.0274 c -3.69874,0.0367 -5.56641,0.97049 -5.60302,2.80152 0.0549,1.73952 1.93175,2.60012 5.6305,2.58178 l 5.41076,0 c 11.04123,0.0367 16.58931,4.67837 16.64429,13.92517 -4e-5,8.99049 -5.53898,13.51318 -16.61681,13.56812 l -16.50697,0 c -3.66212,-0.0183 -5.48401,-1.81275 -5.4657,-5.3833 0.0183,-3.64379 1.82189,-5.44738 5.41077,-5.41077 l 16.5619,-0.0824 c 3.69868,-0.0183 5.54806,-0.9613 5.54808,-2.82899 -2e-5,-1.86766 -1.86771,-2.79234 -5.60302,-2.77405 l -5.41078,0 c -11.00465,-0.0183 -16.50695,-4.55015 -16.50695,-13.59557 -0.0732,-9.17355 5.42908,-13.76949 16.50695,-13.78785 l 16.53444,0 c 3.62544,0.0184 5.45648,1.84941 5.49315,5.49317" />
        <path
           inkscape:connector-curvature="0"
           id="path3065"
           style="font-size:144px;font-style:normal;font-variant:normal;font-weight:bold;font-stretch:normal;line-height:125%;letter-spacing:-6.24000359px;word-spacing:0px;fill:#00c0c0;fill-opacity:1;stroke:none;font-family:Virgo01;-inkscape-font-specification:Virgo01"
           d="m 354.83882,690.91536 c 3.64376,5e-5 5.47482,1.8494 5.49317,5.5481 l -0.0274,32.98645 c -3e-5,3.69872 -1.84024,5.52978 -5.52063,5.49315 -3.66213,0.0183 -5.48402,-1.79443 -5.46569,-5.43823 l 0,-11.06873 -8.07496,0.0275 c -3.75367,2e-5 -5.65797,-1.82188 -5.71289,-5.4657 0.0183,-3.68039 1.92259,-5.51144 5.71289,-5.49316 l 8.07496,-0.0824 0,-10.95886 c -3e-5,-3.69868 1.84017,-5.54805 5.52063,-5.54809 m -27.46582,0.0549 c 3.6804,0.0184 5.52061,1.85856 5.52062,5.52063 l -0.0274,32.95898 c -0.0183,3.6255 -1.85853,5.45654 -5.52063,5.49316 -3.66212,-0.0183 -5.48401,-1.84021 -5.4657,-5.46569 l 0,-32.95899 c -1e-5,-3.66206 1.83105,-5.51142 5.49316,-5.54809" />
        <path
           inkscape:connector-curvature="0"
           id="path3067"
           style="font-size:144px;font-style:normal;font-variant:normal;font-weight:bold;font-stretch:normal;line-height:125%;letter-spacing:-6.24000359px;word-spacing:0px;fill:#00c0c0;fill-opacity:1;stroke:none;font-family:Virgo01;-inkscape-font-specification:Virgo01"
           d="m 385.30535,691.02523 c 3.6987,4e-5 7.29672,0.95218 10.79407,2.85644 3.51559,1.88603 6.26216,4.59598 8.23974,8.12988 1.9958,3.51565 2.99373,7.18693 2.99377,11.01379 -4e-5,3.80862 -0.9705,7.46156 -2.91137,10.95886 -1.92265,3.47902 -4.6326,6.18898 -8.12988,8.12988 -3.49735,1.92261 -7.15945,2.88392 -10.98633,2.88392 -3.7903,0 -7.4341,-0.96131 -10.93139,-2.88392 -3.49733,-1.9409 -6.21643,-4.65086 -8.15735,-8.12988 -1.92261,-3.4973 -2.88391,-7.15024 -2.88391,-10.95886 0,-3.82686 0.97961,-7.49814 2.93884,-11.01379 1.95922,-3.5339 4.68749,-6.24385 8.18482,-8.12988 3.5156,-1.90426 7.13193,-2.8564 10.84899,-2.85644 m 0.0549,10.93139 c -1.86771,3e-5 -3.68045,0.4761 -5.43824,1.42822 -1.73952,0.93388 -3.10365,2.28885 -4.0924,4.06495 -0.98879,1.75783 -1.48317,3.59804 -1.48316,5.52063 -1e-5,1.90431 0.48522,3.7262 1.45569,5.46568 0.97044,1.73953 2.32542,3.09451 4.06494,4.06496 1.75779,0.97047 3.58885,1.45569 5.49317,1.45569 1.90426,0 3.72616,-0.48522 5.46569,-1.45569 1.75778,-0.97045 3.12192,-2.32543 4.09241,-4.06496 0.97042,-1.73948 1.45565,-3.56137 1.45569,-5.46568 -4e-5,-1.92259 -0.49442,-3.7628 -1.48316,-5.52063 -0.9888,-1.7761 -2.36209,-3.13107 -4.11987,-4.06495 -1.75784,-0.95212 -3.56142,-1.42819 -5.41076,-1.42822 m -0.0549,5.63049 c 0.91551,3e-5 1.80356,0.23806 2.66419,0.71411 0.87887,0.4761 1.56552,1.15359 2.05993,2.03247 0.49436,0.86062 0.74155,1.77614 0.74158,2.74658 -3e-5,0.93386 -0.24722,1.84023 -0.74158,2.71913 -0.4761,0.8606 -1.14444,1.52895 -2.005,2.00499 -0.86062,0.4761 -1.76699,0.71413 -2.71912,0.71411 -0.95217,2e-5 -1.86769,-0.23801 -2.74658,-0.71411 -0.86062,-0.47604 -1.52895,-1.14439 -2.005,-2.00499 -0.4761,-0.8789 -0.71413,-1.78527 -0.71412,-2.71913 -1e-5,-0.97044 0.23802,-1.88596 0.71412,-2.74658 0.49436,-0.87888 1.17185,-1.55637 2.03246,-2.03247 0.87889,-0.47605 1.78526,-0.71408 2.71912,-0.71411" />
        <path
           inkscape:connector-curvature="0"
           id="path3069"
           style="font-size:144px;font-style:normal;font-variant:normal;font-weight:bold;font-stretch:normal;line-height:125%;letter-spacing:-6.24000359px;word-spacing:0px;fill:#00c0c0;fill-opacity:1;stroke:none;font-family:Virgo01;-inkscape-font-specification:Virgo01"
           d="m 415.88177,691.02523 19.281,0 c 3.58883,4e-5 6.76572,1.39163 9.53064,4.1748 2.76485,2.76492 4.13814,5.93264 4.11987,9.50317 -4e-5,3.79031 -0.69583,6.99465 -2.08739,9.61305 -1.37334,2.60011 -3.45158,3.94593 -6.23475,4.03746 l 6.78405,6.86646 c 1.08028,1.08032 1.62045,2.4994 1.62049,4.2572 -0.055,3.66211 -1.88603,5.48401 -5.49316,5.46569 -1.86771,0.0549 -3.70792,-0.84228 -5.52063,-2.69164 l -10.98633,-13.62306 c -1.84938,-1.95919 -2.78322,-3.84519 -2.80151,-5.65794 -2e-5,-3.69872 1.84935,-5.53892 5.54809,-5.52063 l 3.90015,-0.0274 c 2.89303,0.0367 4.32125,-0.85141 4.28466,-2.66418 -3e-5,-1.81272 -1.43741,-2.71909 -4.31213,-2.71912 l -3.98254,0 -8.12988,0 0,27.41089 c 0.0183,3.66211 -1.82191,5.49317 -5.52063,5.49317 -3.68043,0.0183 -5.51147,-1.79444 -5.49316,-5.43824 l 0,-33.04138 c 0.0183,-3.58883 1.84936,-5.40156 5.49316,-5.43823" />
        <path
           inkscape:connector-curvature="0"
           id="path3071"
           style="font-size:144px;font-style:normal;font-variant:normal;font-weight:bold;font-stretch:normal;line-height:125%;letter-spacing:-6.24000359px;word-spacing:0px;fill:#00c0c0;fill-opacity:1;stroke:none;font-family:Virgo01;-inkscape-font-specification:Virgo01"
           d="m 457.36212,690.97029 27.79541,0.0549 c 3.42403,0.055 5.14521,1.8311 5.16356,5.32837 -3e-5,3.73539 -1.8494,5.63052 -5.54809,5.68543 l -21.89025,0 0,21.89025 21.83532,0 c 3.6987,0.0183 5.54805,1.86769 5.5481,5.5481 -0.0183,3.60718 -1.83109,5.42907 -5.43823,5.4657 l -27.46582,0 c -3.64381,0 -5.47486,-1.77613 -5.49317,-5.32838 l 0,-33.09631 c 0.0183,-3.62544 1.84936,-5.47479 5.49317,-5.54809 m 8.15734,22.13745 c 0.0366,-3.66209 1.84935,-5.52061 5.43823,-5.57556 l 11.04127,0 c 3.66207,0.0367 5.52059,1.87685 5.57556,5.52064 -0.0733,3.66212 -1.92266,5.49317 -5.5481,5.49315 l -11.04126,0 c -3.62551,0.0183 -5.44741,-1.79442 -5.4657,-5.43823" />
        <path
           inkscape:connector-curvature="0"
           id="path3073"
           style="font-size:144px;font-style:normal;font-variant:normal;font-weight:bold;font-stretch:normal;line-height:125%;letter-spacing:-6.24000359px;word-spacing:0px;fill:#00c0c0;fill-opacity:1;stroke:none;font-family:Virgo01;-inkscape-font-specification:Virgo01"
           d="m 531.91128,696.51838 c -5e-5,3.66215 -1.767,5.50235 -5.3009,5.52064 l -16.72665,-0.0274 c -3.69875,0.0367 -5.56641,0.97049 -5.60305,2.80152 0.0549,1.73952 1.93175,2.60012 5.6305,2.58178 l 5.41079,0 c 11.04121,0.0367 16.58926,4.67837 16.64426,13.92517 -5e-5,8.99049 -5.53895,13.51318 -16.61681,13.56812 l -16.50696,0 c -3.66211,-0.0183 -5.48401,-1.81275 -5.46569,-5.3833 0.0183,-3.64379 1.82189,-5.44738 5.41077,-5.41077 l 16.56188,-0.0824 c 3.69872,-0.0183 5.54806,-0.9613 5.54806,-2.82899 0,-1.86766 -1.86766,-2.79234 -5.60298,-2.77405 l -5.41077,0 c -11.00465,-0.0183 -16.50696,-4.55015 -16.50696,-13.59557 -0.0732,-9.17356 5.42906,-13.7695 16.50696,-13.78785 l 16.5344,0 c 3.62545,0.0184 5.45655,1.84941 5.49315,5.49317" />
      </g>
    </g>
  </g>
</svg>
